<?xml version="1.0" standalone="no"?>
<!DOCTYPE svg PUBLIC "-//W3C//DTD SVG 20010904//EN"
 "http://www.w3.org/TR/2001/REC-SVG-20010904/DTD/svg10.dtd">
<svg version="1.0" xmlns="http://www.w3.org/2000/svg"
 width="32.000000pt" height="32.000000pt" viewBox="0 0 32.000000 32.000000"
 preserveAspectRatio="xMidYMid meet">

<g transform="translate(0.000000,32.000000) scale(0.100000,-0.100000)"
fill="#000000" stroke="none">
<path d="M1 160 l0 -160 160 0 159 0 0 160 0 160 -160 0 -160 0 1 -160z m49
120 c0 -5 7 -10 16 -10 8 0 12 -4 9 -10 -12 -19 -45 -11 -45 10 0 11 5 20 10
20 6 0 10 -4 10 -10z m234 -21 c-7 -11 -34 -12 -34 -1 0 14 11 21 26 15 8 -3
11 -9 8 -14z m-134 -23 c0 -20 -26 -27 -40 -11 -8 10 -8 14 2 18 24 10 38 7
38 -7z m-47 -52 c-6 -15 -33 -20 -33 -5 0 5 3 17 6 25 5 13 10 14 20 6 7 -7
10 -18 7 -26z m70 19 c4 -3 0 -15 -10 -25 -21 -23 -9 -36 18 -20 19 12 20 11
17 -9 -5 -33 -44 -43 -68 -19 -25 25 -25 35 0 60 21 21 32 24 43 13z m-23
-119 c0 -15 -10 -17 -34 -8 -13 5 -14 10 -6 20 14 15 40 8 40 -12z m42 4 c-6
-6 -15 -8 -19 -4 -4 4 -1 11 7 16 19 12 27 3 12 -12z m98 -38 c0 -15 -7 -20
-27 -20 -26 0 -26 0 -7 19 25 26 34 26 34 1z m-220 -12 c0 -4 -9 -8 -20 -8
-11 0 -20 4 -20 9 0 6 9 9 20 8 11 -1 20 -5 20 -9z"/>
</g>
</svg>
